<svg width="101" height="34" viewBox="0 0 101 34" fill="none" xmlns="http://www.w3.org/2000/svg">
<g clip-path="url(#clip0_213_1753)">
<path d="M2.7415 27.1544H15.2771V21.8894H5.49936V11.1088L12.77 6.09452L20.0407 11.1088V15.8723H25.3056V9.85521C25.3056 8.85234 24.8764 7.89759 24.0521 7.34808L14.2743 0.829545C13.2714 0.16098 12.2686 0.171427 11.2657 0.829545C8.59146 2.58453 2.94207 6.42042 1.73865 7.22272C0.53523 8.02498 0.234375 8.97111 0.234375 9.85521V24.6472C0.234375 25.8507 1.48794 27.1544 2.7415 27.1544Z" fill="#F8FCFF"/>
<path d="M15.2773 27.157V18.6175C15.2773 17.1018 16.4746 15.875 17.9539 15.875H25.3058L15.2773 27.157Z" fill="#F8FCFF"/>
<path d="M31.0636 16.9884H32.3874C32.8988 16.3917 33.5507 15.0178 33.7613 10.7055L33.7863 8.37891H41.2075V16.9934H42.8872V20.6738H40.8566V19.0643H33.0944V20.6738H31.0586V16.9884H31.0636ZM34.7741 16.9884H39.0512V10.2743L35.9074 10.3094L35.8221 12.275C35.5915 15.2685 35.2204 16.4769 34.7741 16.9884Z" fill="#F8FCFF"/>
<path d="M47.7617 10.75C50.4395 10.75 52.1644 12.505 52.1644 14.8567C52.1644 17.2033 50.4395 18.9633 47.7617 18.9633C45.0843 18.9633 43.3594 17.2084 43.3594 14.8567C43.3594 12.505 45.0843 10.75 47.7617 10.75ZM47.7617 17.098C49.0352 17.098 49.9732 16.2105 49.9732 14.8567C49.9732 13.5329 49.0203 12.6303 47.7617 12.6303C46.5383 12.6303 45.5705 13.4978 45.5705 14.8567C45.5705 16.1603 46.5031 17.098 47.7617 17.098Z" fill="#F8FCFF"/>
<path d="M53.2812 10.9375H55.1517L57.8996 13.7756L60.5069 10.9375H62.3219V18.7648H60.256V13.9812L57.8644 16.4682H57.8092L55.3472 13.9812V18.7648H53.2812V10.9375Z" fill="#F8FCFF"/>
<path d="M92.9297 10.9375H94.9956V18.7648H92.9297V10.9375ZM97.0316 14.6581L100.958 18.7648H98.26L94.1783 14.8185L98.0442 10.9375H100.652L97.0316 14.6581Z" fill="#F8FCFF"/>
<path d="M64.3672 10.9375H66.4331V18.7648H64.3672V10.9375ZM68.4687 14.6581L72.3948 18.7648H69.6975L65.6158 14.8185L69.4817 10.9375H72.089L68.4687 14.6581Z" fill="#F8FCFF"/>
<path d="M78.9458 12.9382H76.8649L76.835 13.7856C76.7347 18.2433 75.3408 19.0305 73.1094 18.8149V16.8794C74.3078 16.9596 74.794 16.398 74.8492 13.3895L74.8895 10.9375H81.0167V18.7648H78.9511V12.9382H78.9458Z" fill="#F8FCFF"/>
<path d="M83.0625 18.7648V10.9375H85.1284V15.8966L88.9039 10.9375H90.9698V18.7648H88.9039V13.8057L85.1284 18.7648H83.0625Z" fill="#F8FCFF"/>
<path d="M92.9887 26.0921L94.4228 25.0391H89.6289V31.3771H94.4228V30.3191H90.9979V28.6994H93.9163V27.6414H90.9979V26.0921H92.9887Z" fill="#F8FCFF"/>
<path d="M86.0127 27.5111H84.348V26.097H87.0054L88.4395 25.0391H82.9844V31.3771H85.8372C87.4418 31.3771 88.3545 30.65 88.3545 29.3814C88.3545 28.173 87.5219 27.5111 86.0127 27.5111ZM85.7721 30.3191H84.348V28.5641H85.7721C86.6395 28.5641 87.0457 28.8599 87.0457 29.4416C87.0457 30.0433 86.6146 30.3191 85.7721 30.3191Z" fill="#F8FCFF"/>
<path d="M98.303 25.0312H95.6953V31.3743H97.0643V29.5792H98.303C99.9677 29.5792 101.001 28.7017 101.001 27.3027C101.001 25.9037 99.9677 25.0312 98.303 25.0312ZM98.2727 28.5212H97.0593V26.0893H98.2727C99.1501 26.0893 99.6317 26.5205 99.6317 27.3027C99.6317 28.0899 99.1501 28.5212 98.2727 28.5212Z" fill="#F8FCFF"/>
<path d="M80.6333 30.0025C80.2824 30.198 79.8759 30.2983 79.4498 30.2983C78.2165 30.2983 77.3238 29.4158 77.3238 28.2074C77.3238 26.9989 78.2165 26.1164 79.4498 26.1164C79.9161 26.1164 80.3372 26.2468 80.6935 26.5025L81.6713 25.7805L81.6061 25.7203C81.0345 25.2139 80.267 24.9531 79.3897 24.9531C78.4421 24.9531 77.5797 25.274 76.9628 25.8557C76.341 26.4424 76 27.2647 76 28.1723C76 29.0849 76.341 29.9172 76.9579 30.5189C77.5743 31.1257 78.4368 31.4566 79.3797 31.4566C80.3674 31.4566 81.2249 31.1106 81.8115 30.4839C81.3602 30.1529 80.9241 29.832 80.9241 29.832L80.6333 30.0025Z" fill="#F8FCFF"/>
<path d="M71.7684 24.9609C72.0178 25.2828 72.2255 25.6359 72.4017 26.0097L67.6044 29.5507L65.5898 28.2838V26.7678L67.5941 28.0243L71.7684 24.9609Z" fill="#F8FCFF"/>
<path d="M63.547 28.1801C63.547 28.1074 63.547 28.0451 63.5573 27.9725L62.3424 27.9102C62.3424 27.9932 62.332 28.0867 62.332 28.1697C62.332 29.6235 62.924 30.9423 63.8795 31.8977L64.7412 31.0358C64.0041 30.3089 63.547 29.3016 63.547 28.1801Z" fill="#F8FCFF"/>
<path d="M67.5965 24.1329C67.6693 24.1329 67.7314 24.1329 67.8042 24.1433L67.8666 22.9284C67.7835 22.9284 67.69 22.918 67.6069 22.918C66.1532 22.918 64.8345 23.5098 63.8789 24.4652L64.741 25.3271C65.4678 24.5898 66.4854 24.1329 67.5965 24.1329Z" fill="#F8FCFF"/>
<path d="M67.5943 32.2332C67.5215 32.2332 67.4595 32.2332 67.3867 32.2229L67.3242 33.4378C67.4074 33.4378 67.5009 33.4482 67.584 33.4482C69.0376 33.4482 70.3564 32.8563 71.312 31.9009L70.4499 31.0391C69.7231 31.7867 68.7158 32.2332 67.5943 32.2332Z" fill="#F8FCFF"/>
<path d="M69.8784 24.8377L70.9064 24.0797C70.0029 23.3528 68.8505 22.9062 67.5938 22.9062V24.1212C68.4455 24.1316 69.2347 24.3912 69.8784 24.8377Z" fill="#F8FCFF"/>
<path d="M72.8708 28.1794C72.8708 27.8574 72.8398 27.5459 72.7881 27.2344L71.6559 28.0755C71.6559 28.1067 71.6559 28.1482 71.6559 28.1794C71.6559 29.3735 71.1367 30.4431 70.3164 31.1804L71.1367 32.0838C72.1961 31.1285 72.8708 29.7266 72.8708 28.1794Z" fill="#F8FCFF"/>
<path d="M67.596 32.2302C66.4017 32.2302 65.332 31.711 64.5949 30.8906L63.6914 31.711C64.6573 32.7805 66.0485 33.4451 67.596 33.4451V32.2302Z" fill="#F8FCFF"/>
<path d="M64.8868 25.1768L64.0661 24.2734C62.9968 25.2391 62.332 26.6306 62.332 28.1779H63.547C63.547 26.9941 64.0661 25.9141 64.8868 25.1768Z" fill="#F8FCFF"/>
</g>
<defs>
<clipPath id="clip0_213_1753">
<rect width="100.766" height="33.3333" fill="white" transform="translate(0.234375 0.332031)"/>
</clipPath>
</defs>
</svg>
