<svg width="97" height="32" viewBox="0 0 97 32" fill="none" xmlns="http://www.w3.org/2000/svg">
<g clip-path="url(#clip0_949_6356)">
<path d="M2.68025 25.7452H14.7143V20.6909H5.32775V10.3416L12.3075 5.52801L19.2872 10.3416V14.9146H24.3415V9.13822C24.3415 8.17548 23.9294 7.25893 23.1381 6.73141L13.7515 0.4737C12.7888 -0.168113 11.8261 -0.158084 10.8634 0.4737C8.29613 2.15847 2.87279 5.84087 1.71752 6.61107C0.562255 7.38123 0.273438 8.2895 0.273438 9.13822V23.3384C0.273438 24.4936 1.47684 25.7452 2.68025 25.7452Z" fill="#677789"/>
<path d="M14.7031 25.7408V17.5429C14.7031 16.0879 15.8525 14.9102 17.2726 14.9102H24.3304L14.7031 25.7408Z" fill="#677789"/>
<path d="M29.8642 15.9954H31.135C31.626 15.4226 32.2517 14.1037 32.4539 9.964L32.478 7.73047H39.6022V16.0003H41.2147V19.5335H39.2653V17.9883H31.8137V19.5335H29.8594V15.9954H29.8642ZM33.4263 15.9954H37.5322V9.55003L34.5141 9.58372L34.4323 11.4707C34.2109 14.3444 33.8546 15.5045 33.4263 15.9954Z" fill="#677789"/>
<path d="M45.898 9.98828C48.4687 9.98828 50.1245 11.673 50.1245 13.9306C50.1245 16.1834 48.4687 17.873 45.898 17.873C43.3278 17.873 41.6719 16.1882 41.6719 13.9306C41.6719 11.673 43.3278 9.98828 45.898 9.98828ZM45.898 16.0823C47.1206 16.0823 48.021 15.2303 48.021 13.9306C48.021 12.6598 47.1063 11.7934 45.898 11.7934C44.7236 11.7934 43.7945 12.6261 43.7945 13.9306C43.7945 15.1821 44.6898 16.0823 45.898 16.0823Z" fill="#677789"/>
<path d="M51.1953 10.1836H52.991L55.6289 12.9081L58.1319 10.1836H59.8742V17.6977H57.8909V13.1055L55.5951 15.493H55.5421L53.1786 13.1055V17.6977H51.1953V10.1836Z" fill="#677789"/>
<path d="M89.2578 10.1836H91.241V17.6977H89.2578V10.1836ZM93.1956 13.7553L96.9646 17.6977H94.3748L90.4565 13.9093L94.1677 10.1836H96.671L93.1956 13.7553Z" fill="#677789"/>
<path d="M61.8359 10.1836H63.8192V17.6977H61.8359V10.1836ZM65.7734 13.7553L69.5423 17.6977H66.9529L63.0346 13.9093L66.7458 10.1836H69.2488L65.7734 13.7553Z" fill="#677789"/>
<path d="M75.8294 12.1042H73.8318L73.8032 12.9178C73.7068 17.1971 72.3687 17.9528 70.2266 17.7458V15.8878C71.3771 15.9648 71.8438 15.4256 71.8968 12.5375L71.9354 10.1836H77.8174V17.6977H75.8346V12.1042H75.8294Z" fill="#677789"/>
<path d="M79.7891 17.6977V10.1836H81.7723V14.9443L85.3967 10.1836H87.3799V17.6977H85.3967V12.937L81.7723 17.6977H79.7891Z" fill="#677789"/>
<path d="M89.3113 24.7257L90.688 23.7148H86.0859V29.7992H90.688V28.7836H87.4001V27.2288H90.2017V26.2131H87.4001V24.7257H89.3113Z" fill="#677789"/>
<path d="M82.6181 26.0879H81.02V24.7305H83.5711L84.9478 23.7148H79.7109V29.7992H82.4497C83.9901 29.7992 84.8662 29.1013 84.8662 27.8834C84.8662 26.7234 84.0669 26.0879 82.6181 26.0879ZM82.3871 28.7836H81.02V27.0988H82.3871C83.2199 27.0988 83.6097 27.3828 83.6097 27.9412C83.6097 28.5188 83.1959 28.7836 82.3871 28.7836Z" fill="#677789"/>
<path d="M94.4096 23.6992H91.9062V29.7885H93.2204V28.0652H94.4096C96.0077 28.0652 96.9993 27.2228 96.9993 25.8798C96.9993 24.5368 96.0077 23.6992 94.4096 23.6992ZM94.3805 27.0495H93.2157V24.7149H94.3805C95.2228 24.7149 95.6851 25.1289 95.6851 25.8798C95.6851 26.6355 95.2228 27.0495 94.3805 27.0495Z" fill="#677789"/>
<path d="M77.4479 28.4918C77.111 28.6796 76.7208 28.7759 76.3118 28.7759C75.1278 28.7759 74.2708 27.9286 74.2708 26.7686C74.2708 25.6085 75.1278 24.7613 76.3118 24.7613C76.7594 24.7613 77.1636 24.8864 77.5057 25.132L78.4443 24.4388L78.3818 24.381C77.833 23.8948 77.0963 23.6445 76.254 23.6445C75.3444 23.6445 74.5165 23.9526 73.9243 24.511C73.3274 25.0742 73 25.8636 73 26.7349C73 27.611 73.3274 28.41 73.9195 28.9877C74.5113 29.5701 75.3393 29.8878 76.2445 29.8878C77.1927 29.8878 78.0158 29.5557 78.579 28.954C78.1457 28.6362 77.7271 28.3282 77.7271 28.3282L77.4479 28.4918Z" fill="#677789"/>
<path d="M68.9391 23.6445C69.1786 23.9535 69.3779 24.2925 69.5471 24.6513L64.9418 28.0507L63.0078 26.8345V25.3791L64.9318 26.5853L68.9391 23.6445Z" fill="#677789"/>
<path d="M61.0413 26.7318C61.0413 26.662 61.0413 26.6022 61.0513 26.5325L59.8849 26.4727C59.8849 26.5524 59.875 26.6421 59.875 26.7218C59.875 28.1175 60.4433 29.3835 61.3606 30.3006L62.1878 29.4732C61.4801 28.7754 61.0413 27.8084 61.0413 26.7318Z" fill="#677789"/>
<path d="M64.9361 22.8577C65.0059 22.8577 65.0655 22.8577 65.1354 22.8677L65.1954 21.7014C65.1156 21.7014 65.0258 21.6914 64.946 21.6914C63.5505 21.6914 62.2845 22.2596 61.3672 23.1767L62.1948 24.0041C62.8925 23.2964 63.8694 22.8577 64.9361 22.8577Z" fill="#677789"/>
<path d="M64.9312 30.6269C64.8613 30.6269 64.8017 30.6269 64.7318 30.6169L64.6719 31.7832C64.7517 31.7832 64.8414 31.7932 64.9213 31.7932C66.3167 31.7932 67.5827 31.225 68.5001 30.3079L67.6725 29.4805C66.9747 30.1982 66.0078 30.6269 64.9312 30.6269Z" fill="#677789"/>
<path d="M67.1229 23.5221L68.1098 22.7944C67.2425 22.0966 66.1361 21.668 64.9297 21.668V22.8343C65.7473 22.8443 66.505 23.0935 67.1229 23.5221Z" fill="#677789"/>
<path d="M69.9991 26.7314C69.9991 26.4224 69.9693 26.1233 69.9196 25.8242L68.8327 26.6317C68.8327 26.6616 68.8327 26.7015 68.8327 26.7314C68.8327 27.8778 68.3344 28.9046 67.5469 29.6123L68.3344 30.4796C69.3514 29.5625 69.9991 28.2167 69.9991 26.7314Z" fill="#677789"/>
<path d="M64.9359 30.6102C63.7894 30.6102 62.7625 30.1118 62.0548 29.3242L61.1875 30.1118C62.1148 31.1385 63.4503 31.7765 64.9359 31.7765V30.6102Z" fill="#677789"/>
<path d="M62.3276 23.8555L61.5397 22.9883C60.5132 23.9153 59.875 25.2512 59.875 26.7365H61.0413C61.0413 25.6001 61.5397 24.5633 62.3276 23.8555Z" fill="#677789"/>
</g>
<defs>
<clipPath id="clip0_949_6356">
<rect width="96.7343" height="31.9996" fill="white" transform="translate(0.265625)"/>
</clipPath>
</defs>
</svg>
