<svg width="136" height="24" viewBox="0 0 136 24" fill="none" xmlns="http://www.w3.org/2000/svg">
<g clip-path="url(#clip0_261_1630)">
<path d="M12.6898 2.70951L14.8676 7.89951C14.9203 8.02547 15.0064 8.13464 15.1166 8.21526C15.2268 8.29589 15.3569 8.3449 15.4929 8.35701L21.0673 8.83889C21.2152 8.85077 21.3562 8.90627 21.4726 8.99835C21.5889 9.09043 21.6754 9.21495 21.7209 9.35616C21.7665 9.49738 21.7691 9.64893 21.7286 9.79166C21.688 9.93438 21.6059 10.0619 21.4929 10.1579L17.2638 13.847C17.161 13.9373 17.0846 14.0538 17.0427 14.184C17.0008 14.3142 16.9949 14.4534 17.0257 14.5867L18.2932 20.0748C18.3267 20.2182 18.3173 20.3682 18.2661 20.5062C18.2149 20.6442 18.1243 20.7641 18.0054 20.851C17.8866 20.9379 17.7448 20.9878 17.5978 20.9947C17.4507 21.0015 17.3049 20.965 17.1785 20.8895L12.3879 17.9833C12.2715 17.9125 12.1379 17.875 12.0016 17.875C11.8654 17.875 11.7318 17.9125 11.6154 17.9833L6.82475 20.8895C6.69835 20.965 6.55255 21.0015 6.4055 20.9947C6.25846 20.9878 6.11668 20.9379 5.99784 20.851C5.879 20.7641 5.78834 20.6442 5.73717 20.5062C5.686 20.3682 5.67657 20.2182 5.71007 20.0748L6.97757 14.5867C7.00838 14.4534 7.00251 14.3142 6.96058 14.184C6.91865 14.0538 6.84224 13.9373 6.73944 13.847L2.51038 10.1579C2.39732 10.0619 2.3153 9.93438 2.27471 9.79166C2.23411 9.64893 2.23677 9.49738 2.28233 9.35616C2.3279 9.21495 2.41433 9.09043 2.53068 8.99835C2.64704 8.90627 2.7881 8.85077 2.936 8.83889L8.51038 8.35701C8.64638 8.3449 8.77649 8.29589 8.88669 8.21526C8.99688 8.13464 9.08298 8.02547 9.13569 7.89951L11.3135 2.70951C11.3717 2.57533 11.4678 2.46108 11.5901 2.38083C11.7123 2.30057 11.8554 2.25781 12.0016 2.25781C12.1479 2.25781 12.2909 2.30057 12.4132 2.38083C12.5355 2.46108 12.6316 2.57533 12.6898 2.70951Z" fill="#2C92FD"/>
</g>
<g clip-path="url(#clip1_261_1630)">
<path d="M40.6898 2.70951L42.8676 7.89951C42.9203 8.02547 43.0064 8.13464 43.1166 8.21526C43.2268 8.29589 43.3569 8.3449 43.4929 8.35701L49.0673 8.83889C49.2152 8.85077 49.3562 8.90627 49.4726 8.99835C49.5889 9.09043 49.6754 9.21495 49.7209 9.35616C49.7665 9.49738 49.7691 9.64893 49.7286 9.79166C49.688 9.93438 49.6059 10.0619 49.4929 10.1579L45.2638 13.847C45.161 13.9373 45.0846 14.0538 45.0427 14.184C45.0008 14.3142 44.9949 14.4534 45.0257 14.5867L46.2932 20.0748C46.3267 20.2182 46.3173 20.3682 46.2661 20.5062C46.2149 20.6442 46.1243 20.7641 46.0054 20.851C45.8866 20.9379 45.7448 20.9878 45.5978 20.9947C45.4507 21.0015 45.3049 20.965 45.1785 20.8895L40.3879 17.9833C40.2715 17.9125 40.1379 17.875 40.0016 17.875C39.8654 17.875 39.7318 17.9125 39.6154 17.9833L34.8248 20.8895C34.6984 20.965 34.5525 21.0015 34.4055 20.9947C34.2585 20.9878 34.1167 20.9379 33.9978 20.851C33.879 20.7641 33.7883 20.6442 33.7372 20.5062C33.686 20.3682 33.6766 20.2182 33.7101 20.0748L34.9776 14.5867C35.0084 14.4534 35.0025 14.3142 34.9606 14.184C34.9187 14.0538 34.8422 13.9373 34.7394 13.847L30.5104 10.1579C30.3973 10.0619 30.3153 9.93438 30.2747 9.79166C30.2341 9.64893 30.2368 9.49738 30.2823 9.35616C30.3279 9.21495 30.4143 9.09043 30.5307 8.99835C30.647 8.90627 30.7881 8.85077 30.936 8.83889L36.5104 8.35701C36.6464 8.3449 36.7765 8.29589 36.8867 8.21526C36.9969 8.13464 37.083 8.02547 37.1357 7.89951L39.3135 2.70951C39.3717 2.57533 39.4678 2.46108 39.5901 2.38083C39.7123 2.30057 39.8554 2.25781 40.0016 2.25781C40.1479 2.25781 40.2909 2.30057 40.4132 2.38083C40.5355 2.46108 40.6316 2.57533 40.6898 2.70951Z" fill="#2C92FD"/>
</g>
<g clip-path="url(#clip2_261_1630)">
<path d="M68.6898 2.70951L70.8676 7.89951C70.9203 8.02547 71.0064 8.13464 71.1166 8.21526C71.2268 8.29589 71.3569 8.3449 71.4929 8.35701L77.0673 8.83889C77.2152 8.85077 77.3562 8.90627 77.4726 8.99835C77.5889 9.09043 77.6754 9.21495 77.7209 9.35616C77.7665 9.49738 77.7691 9.64893 77.7286 9.79166C77.688 9.93438 77.6059 10.0619 77.4929 10.1579L73.2638 13.847C73.161 13.9373 73.0846 14.0538 73.0427 14.184C73.0008 14.3142 72.9949 14.4534 73.0257 14.5867L74.2932 20.0748C74.3267 20.2182 74.3173 20.3682 74.2661 20.5062C74.2149 20.6442 74.1243 20.7641 74.0054 20.851C73.8866 20.9379 73.7448 20.9878 73.5978 20.9947C73.4507 21.0015 73.3049 20.965 73.1785 20.8895L68.3879 17.9833C68.2715 17.9125 68.1379 17.875 68.0016 17.875C67.8654 17.875 67.7318 17.9125 67.6154 17.9833L62.8248 20.8895C62.6984 20.965 62.5525 21.0015 62.4055 20.9947C62.2585 20.9878 62.1167 20.9379 61.9978 20.851C61.879 20.7641 61.7883 20.6442 61.7372 20.5062C61.686 20.3682 61.6766 20.2182 61.7101 20.0748L62.9776 14.5867C63.0084 14.4534 63.0025 14.3142 62.9606 14.184C62.9187 14.0538 62.8422 13.9373 62.7394 13.847L58.5104 10.1579C58.3973 10.0619 58.3153 9.93438 58.2747 9.79166C58.2341 9.64893 58.2368 9.49738 58.2823 9.35616C58.3279 9.21495 58.4143 9.09043 58.5307 8.99835C58.647 8.90627 58.7881 8.85077 58.936 8.83889L64.5104 8.35701C64.6464 8.3449 64.7765 8.29589 64.8867 8.21526C64.9969 8.13464 65.083 8.02547 65.1357 7.89951L67.3135 2.70951C67.3717 2.57533 67.4678 2.46108 67.5901 2.38083C67.7123 2.30057 67.8554 2.25781 68.0016 2.25781C68.1479 2.25781 68.2909 2.30057 68.4132 2.38083C68.5355 2.46108 68.6316 2.57533 68.6898 2.70951Z" fill="#2C92FD"/>
</g>
<g clip-path="url(#clip3_261_1630)">
<path d="M96.6898 2.70951L98.8676 7.89951C98.9203 8.02547 99.0064 8.13464 99.1166 8.21526C99.2268 8.29589 99.3569 8.3449 99.4929 8.35701L105.067 8.83889C105.215 8.85077 105.356 8.90627 105.473 8.99835C105.589 9.09043 105.675 9.21495 105.721 9.35616C105.766 9.49738 105.769 9.64893 105.729 9.79166C105.688 9.93438 105.606 10.0619 105.493 10.1579L101.264 13.847C101.161 13.9373 101.085 14.0538 101.043 14.184C101.001 14.3142 100.995 14.4534 101.026 14.5867L102.293 20.0748C102.327 20.2182 102.317 20.3682 102.266 20.5062C102.215 20.6442 102.124 20.7641 102.005 20.851C101.887 20.9379 101.745 20.9878 101.598 20.9947C101.451 21.0015 101.305 20.965 101.179 20.8895L96.3879 17.9833C96.2715 17.9125 96.1379 17.875 96.0016 17.875C95.8654 17.875 95.7318 17.9125 95.6154 17.9833L90.8248 20.8895C90.6984 20.965 90.5525 21.0015 90.4055 20.9947C90.2585 20.9878 90.1167 20.9379 89.9978 20.851C89.879 20.7641 89.7883 20.6442 89.7372 20.5062C89.686 20.3682 89.6766 20.2182 89.7101 20.0748L90.9776 14.5867C91.0084 14.4534 91.0025 14.3142 90.9606 14.184C90.9187 14.0538 90.8422 13.9373 90.7394 13.847L86.5104 10.1579C86.3973 10.0619 86.3153 9.93438 86.2747 9.79166C86.2341 9.64893 86.2368 9.49738 86.2823 9.35616C86.3279 9.21495 86.4143 9.09043 86.5307 8.99835C86.647 8.90627 86.7881 8.85077 86.936 8.83889L92.5104 8.35701C92.6464 8.3449 92.7765 8.29589 92.8867 8.21526C92.9969 8.13464 93.083 8.02547 93.1357 7.89951L95.3135 2.70951C95.3717 2.57533 95.4678 2.46108 95.5901 2.38083C95.7123 2.30057 95.8554 2.25781 96.0016 2.25781C96.1479 2.25781 96.2909 2.30057 96.4132 2.38083C96.5355 2.46108 96.6316 2.57533 96.6898 2.70951Z" fill="#2C92FD"/>
</g>
<g clip-path="url(#clip4_261_1630)">
<path d="M124.686 2.70951L126.864 7.89951C126.916 8.02547 127.002 8.13464 127.113 8.21526C127.223 8.29589 127.353 8.3449 127.489 8.35701L133.063 8.83889C133.211 8.85077 133.352 8.90627 133.469 8.99835C133.585 9.09043 133.671 9.21495 133.717 9.35616C133.763 9.49738 133.765 9.64893 133.725 9.79166C133.684 9.93438 133.602 10.0619 133.489 10.1579L129.26 13.847C129.157 13.9373 129.081 14.0538 129.039 14.184C128.997 14.3142 128.991 14.4534 129.022 14.5867L130.289 20.0748C130.323 20.2182 130.313 20.3682 130.262 20.5062C130.211 20.6442 130.12 20.7641 130.002 20.851C129.883 20.9379 129.741 20.9878 129.594 20.9947C129.447 21.0015 129.301 20.965 129.175 20.8895L124.384 17.9833C124.268 17.9125 124.134 17.875 123.998 17.875C123.861 17.875 123.728 17.9125 123.611 17.9833L118.821 20.8895C118.694 20.965 118.549 21.0015 118.402 20.9947C118.255 20.9878 118.113 20.9379 117.994 20.851C117.875 20.7641 117.784 20.6442 117.733 20.5062C117.682 20.3682 117.673 20.2182 117.706 20.0748L118.974 14.5867C119.004 14.4534 118.999 14.3142 118.957 14.184C118.915 14.0538 118.838 13.9373 118.736 13.847L114.506 10.1579C114.393 10.0619 114.311 9.93438 114.271 9.79166C114.23 9.64893 114.233 9.49738 114.278 9.35616C114.324 9.21495 114.41 9.09043 114.527 8.99835C114.643 8.90627 114.784 8.85077 114.932 8.83889L120.506 8.35701C120.642 8.3449 120.773 8.29589 120.883 8.21526C120.993 8.13464 121.079 8.02547 121.132 7.89951L123.31 2.70951C123.368 2.57533 123.464 2.46108 123.586 2.38083C123.708 2.30057 123.851 2.25781 123.998 2.25781C124.144 2.25781 124.287 2.30057 124.409 2.38083C124.532 2.46108 124.628 2.57533 124.686 2.70951Z" fill="#2C92FD"/>
</g>
<defs>
<clipPath id="clip0_261_1630">
<rect width="24" height="24" fill="white"/>
</clipPath>
<clipPath id="clip1_261_1630">
<rect width="24" height="24" fill="white" transform="translate(28)"/>
</clipPath>
<clipPath id="clip2_261_1630">
<rect width="24" height="24" fill="white" transform="translate(56)"/>
</clipPath>
<clipPath id="clip3_261_1630">
<rect width="24" height="24" fill="white" transform="translate(84)"/>
</clipPath>
<clipPath id="clip4_261_1630">
<rect width="24" height="24" fill="white" transform="translate(112)"/>
</clipPath>
</defs>
</svg>
