<svg width="94" height="34" viewBox="0 0 94 34" fill="none" xmlns="http://www.w3.org/2000/svg">
<g clip-path="url(#clip0_213_1745)">
<path fill-rule="evenodd" clip-rule="evenodd" d="M6.65754 0.332031L5.07811 4.6584H26.9655L28.545 0.332031H6.65754ZM4.2879 6.82061L2.70847 11.146H24.5959L26.1753 6.82061H4.2879ZM1.92318 13.3092L0.34375 17.6346H22.2312L23.8096 13.3092H1.92318Z" fill="#F8FCFF"/>
<path fill-rule="evenodd" clip-rule="evenodd" d="M46.8728 19.2857V19.377C47.8731 19.7441 48.8286 20.3861 49.3292 20.7984C50.8759 22.0824 51.5587 23.7787 51.5587 25.9795C51.5587 29.6028 49.6477 32.2159 46.5086 33.0415C45.5531 33.3163 44.5528 33.4086 42.6867 33.4086H33.1797V6.90625H41.5958C43.3246 6.90625 44.507 6.99753 45.5531 7.27239C48.6017 8.09795 50.6032 10.2075 50.6032 13.5539C50.6032 15.3425 49.9662 16.8562 48.9202 17.8643C48.4653 18.3227 47.8283 18.8734 46.8728 19.2857ZM38.4567 22.0824V29.0521H42.0965C43.1873 29.0521 44.1886 28.9608 44.9171 28.2726C45.6447 27.5845 45.9632 26.7138 45.9632 25.5672C45.9632 24.6965 45.7352 23.871 45.2804 23.2751C44.507 22.3121 43.5516 22.0824 41.9143 22.0824H38.4567ZM38.4109 17.4972H41.3679C42.2776 17.4972 42.7325 17.4972 43.1873 17.3597C44.4165 16.9926 45.1898 15.8932 45.1898 14.3795C45.1898 12.5919 44.3707 11.8115 43.1873 11.4454C42.6867 11.3079 42.187 11.2618 41.1858 11.2618H38.4109V17.4972ZM59.4742 33.4086V11.3531H51.8771V6.90625H72.9862L71.4853 11.3531H64.7512V33.4086H59.4742ZM74.6234 33.4086V6.90625H91.7294L90.2285 11.3531H79.8557V17.2223H84.0866C87.4985 17.2223 89.2731 18.0479 90.5013 19.1021C91.4567 19.9277 93.094 21.7614 93.094 25.3847C93.094 28.9608 91.4109 30.9319 90.0006 31.941C88.3634 33.0866 86.6346 33.4086 83.1312 33.4086H74.6234ZM79.8557 28.9608H83.8139C85.3148 28.9608 86.2245 28.5936 86.8615 27.7681C87.18 27.3558 87.6348 26.6215 87.6348 25.2462C87.6348 23.871 87.18 22.908 86.2703 22.2198C85.7249 21.8076 84.9963 21.5788 83.7681 21.5788H79.8557V28.9608Z" fill="#F8FCFF"/>
</g>
<defs>
<clipPath id="clip0_213_1745">
<rect width="92.9293" height="33.3333" fill="white" transform="translate(0.34375 0.332031)"/>
</clipPath>
</defs>
</svg>
