<svg width="90" height="32" viewBox="0 0 90 32" fill="none" xmlns="http://www.w3.org/2000/svg">
<g clip-path="url(#clip0_949_6348)">
<path fill-rule="evenodd" clip-rule="evenodd" d="M6.06116 -0.0117188L4.54492 4.14154H25.5566L27.0728 -0.0117188H6.06116ZM3.78633 6.21723L2.2701 10.3696H23.2817L24.798 6.21723H3.78633ZM1.51624 12.4462L0 16.5985H21.0116L22.5269 12.4462H1.51624Z" fill="#677789"/>
<path fill-rule="evenodd" clip-rule="evenodd" d="M44.6609 18.1771V18.2647C45.6211 18.6172 46.5384 19.2335 47.019 19.6293C48.5038 20.8619 49.1592 22.4903 49.1592 24.6031C49.1592 28.0813 47.3247 30.5899 44.3112 31.3824C43.3939 31.6463 42.4337 31.7349 40.6422 31.7349H31.5156V6.29297H39.595C41.2547 6.29297 42.3897 6.3806 43.3939 6.64446C46.3205 7.43699 48.242 9.46213 48.242 12.6746C48.242 14.3916 47.6305 15.8448 46.6263 16.8126C46.1896 17.2526 45.5781 17.7813 44.6609 18.1771ZM36.5815 20.8619V27.5527H40.0756C41.1228 27.5527 42.084 27.465 42.7834 26.8044C43.4818 26.1438 43.7876 25.308 43.7876 24.2073C43.7876 23.3714 43.5688 22.5789 43.1321 22.0069C42.3897 21.0824 41.4725 20.8619 39.9008 20.8619H36.5815ZM36.5375 16.4601H39.3762C40.2495 16.4601 40.6862 16.4601 41.1228 16.3282C42.3028 15.9757 43.0452 14.9203 43.0452 13.4672C43.0452 11.7511 42.2588 11.0019 41.1228 10.6505C40.6422 10.5185 40.1626 10.4742 39.2014 10.4742H36.5375V16.4601ZM56.758 31.7349V10.5619H49.4649V6.29297H69.7294L68.2885 10.5619H61.8239V31.7349H56.758ZM71.3011 31.7349V6.29297H87.7226L86.2818 10.5619H76.324V16.1963H80.3856C83.661 16.1963 85.3645 16.9888 86.5436 18.0009C87.4608 18.7934 89.0326 20.5537 89.0326 24.032C89.0326 27.465 87.4169 29.3573 86.063 30.3261C84.4913 31.4258 82.8316 31.7349 79.4684 31.7349H71.3011ZM76.324 27.465H80.1238C81.5647 27.465 82.438 27.1126 83.0495 26.3201C83.3552 25.9243 83.7919 25.2194 83.7919 23.8991C83.7919 22.5789 83.3552 21.6544 82.4819 20.9938C81.9583 20.598 81.2589 20.3785 80.0799 20.3785H76.324V27.465Z" fill="#677789"/>
</g>
<defs>
<clipPath id="clip0_949_6348">
<rect width="89.2109" height="31.9996" fill="white"/>
</clipPath>
</defs>
</svg>
