<svg width="97" height="40" viewBox="0 0 97 40" fill="none" xmlns="http://www.w3.org/2000/svg">
<g clip-path="url(#clip0_1411_3676)">
<path d="M34.8771 13.4414L39.5745 19.0915L44.2634 13.4414H45.2466V24.2873H43.4311V16.8827L39.5745 21.5953L35.7094 16.8827V24.2873H33.9023V13.4414H34.8788H34.8771Z" fill="white"/>
<path d="M54.7601 13.4431V15.1214H49.171V17.5031H53.5057V19.1678H49.171V22.6091H54.7601V24.2873H47.3555V13.4414H54.7601V13.4431Z" fill="white"/>
<path d="M56.5 24.2873V13.4414H61.567C62.4061 13.4414 62.9587 13.5855 63.4283 13.8567C64.3657 14.3636 64.9794 15.3383 64.9794 16.564C64.9794 17.7896 64.3674 18.7491 63.4215 19.2644C62.9519 19.5289 62.4078 19.6798 61.5686 19.6798H58.3088V24.2856H56.5017L56.5 24.2873ZM61.3483 18.0015C61.8246 18.0015 62.067 17.9642 62.2857 17.8727C62.7994 17.6608 63.1926 17.2065 63.1926 16.5724C63.1926 15.9384 62.8146 15.4841 62.2857 15.2637C62.067 15.1722 61.8314 15.1281 61.3398 15.1281H58.3071V18.0015H61.3483Z" fill="white"/>
<path d="M72.3011 22.2751H67.1511L66.3713 24.2873H64.4727L68.8361 13.4414H70.6279L74.9846 24.2873H73.086L72.2994 22.2751H72.3011ZM67.7851 20.6189H71.6654L69.7295 15.6113L67.7851 20.6189Z" fill="white"/>
<path d="M85.1735 13.4414V24.2873H83.3511V19.1966H77.9282V24.2873H76.1211V13.4414H77.9282V17.5031H83.3511V13.4414H85.1735Z" fill="white"/>
<path d="M94.8261 16.7165L88.2606 24.2873H87.2773V13.4414H89.0929V21.0054C91.278 18.4863 93.4648 15.9605 95.6584 13.4414H96.6416V24.2873H94.8261V16.7165Z" fill="white"/>
<path d="M42.4031 33.2214C41.9115 31.611 40.6113 30.604 38.8856 30.604C36.7445 30.604 35.2256 32.2229 35.2256 34.3555C35.2256 36.4881 36.7225 38.1002 38.8856 38.1002C40.6096 38.1002 41.9183 37.0865 42.4184 35.4371L44.1424 35.9744C43.4914 38.2443 41.3894 39.7785 38.8856 39.7785C35.8291 39.7785 33.3711 37.4493 33.3711 34.3555C33.3711 31.2618 35.7529 28.9258 38.8856 28.9258C41.3216 28.9258 43.4084 30.3091 44.1187 32.6552L42.4014 33.2231L42.4031 33.2214Z" fill="white"/>
<path d="M53.6794 28.9258V30.6193H49.9957V39.7785H48.1801V30.6193H44.5117V28.9258H53.6794Z" fill="white"/>
<path d="M55.207 39.7795V28.9336H60.274C61.1131 28.9336 61.6657 29.0777 62.1353 29.3489C63.0728 29.8558 63.6864 30.8305 63.6864 32.0562C63.6864 33.2818 63.0745 34.2413 62.1285 34.7566C61.659 35.0211 61.1148 35.1719 60.2757 35.1719H57.0158V39.7778H55.2087L55.207 39.7795ZM60.0553 33.4937C60.5317 33.4937 60.7741 33.4564 60.9927 33.3649C61.5064 33.153 61.8997 32.6986 61.8997 32.0646C61.8997 31.4306 61.5217 30.9763 60.9927 30.7559C60.7741 30.6644 60.5384 30.6203 60.0468 30.6203H57.0141V33.4937H60.0553Z" fill="white"/>
<path d="M70.131 39.7795C66.9695 39.7795 64.625 37.4113 64.625 34.3565C64.625 31.3018 66.9695 28.9336 70.131 28.9336C73.2926 28.9336 75.6455 31.3018 75.6455 34.3565C75.6455 37.4113 73.2926 39.7795 70.131 39.7795ZM70.131 30.6118C67.9612 30.6118 66.4711 32.246 66.4711 34.3565C66.4711 36.4671 67.9612 38.086 70.131 38.086C72.3009 38.086 73.791 36.4671 73.791 34.3565C73.791 32.246 72.3093 30.6118 70.131 30.6118Z" fill="white"/>
<path d="M84.7714 32.207L78.2059 39.7778H77.2227V28.9319H79.0382V36.4959C81.2233 33.9768 83.4101 31.451 85.6037 28.9319H86.5869V39.7778H84.7714V32.207ZM80.8012 28.4861L83.0779 25.9297C83.4779 26.3077 83.895 26.679 84.295 27.0485C83.5305 27.8961 82.7744 28.7505 82.0184 29.5981L80.8012 28.4861Z" fill="white"/>
<path d="M22.4277 20.6568L12.8125 10.9721H16.5199L22.0564 16.3324L22.7209 15.5865L22.7515 4.87109H25.4282L25.3807 17.5224L22.4277 20.6568Z" fill="white"/>
<path d="M2.90898 22.7869C2.90898 22.7869 1.54226e-05 18.9541 1.54226e-05 13.9024V13.3362C-0.00507018 9.55416 1.24768 6.30785 3.59893 3.95152C6.14342 1.40363 9.86608 0 14.0804 0L27.664 0.0813697L25.1721 2.71741L14.0871 2.71063C10.5916 2.71063 7.55044 3.83116 5.51789 5.8671C3.65826 7.72843 2.71742 10.2424 2.72251 13.3362V13.9041C2.72251 18.615 5.13817 21.3901 6.61808 23.0565C8.66249 25.3551 12.7615 29.6559 14.3872 31.0239L22.6038 22.219H25.3873V40.0017H22.7106V26.0248L14.3855 34.8991L4.44483 24.6177L3.62775 23.6888" fill="white"/>
<path d="M5.54664 39.9987H2.875V26.6914L5.54664 29.5207V39.9987Z" fill="white"/>
</g>
<defs>
<clipPath id="clip0_1411_3676">
<rect width="96.64" height="40" fill="white"/>
</clipPath>
</defs>
</svg>
